<svg xmlns="http://www.w3.org/2000/svg" width="885.19" height="708.21" viewBox="0 0 885.19 708.21"><title>home-08-shape01</title><path d="M648,87.06q196.44,0,392.89,0c13.95,0,27.52,2.11,40.45,7.37,28.27,11.47,44.13,36.37,44.24,69.51.12,34.49,0,69,0,103.47,0,81-.28,162,.11,242.93.21,45.65-20,78.65-59.5,100.34-40.55,22.27-81.27,44.24-121.88,66.42q-98.6,53.83-197.16,107.77c-16.75,9.15-34.78,11.45-53.6,9.93-19-1.54-35.79-9-52.37-17.93-74.74-40.24-149.7-80.05-224.58-120q-85.45-45.62-170.94-91.16c-3.74-2-5.17-4.17-5.17-8.44q.25-231.18.27-462.37c0-7.86,0-7.86,7.83-7.86H648Z" transform="translate(-240.52 -87)" fill="#fff"/></svg>