<svg xmlns="http://www.w3.org/2000/svg" width="884.24" height="708.21" viewBox="0 0 884.24 708.21"><title>home-08-shape02</title><path d="M-527-353.94q-196.23,0-392.46,0c-13.94,0-27.5,2.11-40.42,7.37-28.24,11.47-44.07,36.37-44.19,69.51-.11,34.49,0,69,0,103.47,0,81,.27,162-.11,242.93-.22,45.65,20,78.65,59.42,100.34,40.52,22.27,81.19,44.24,121.76,66.42q98.49,53.84,196.95,107.77c16.73,9.15,34.74,11.45,53.54,9.93,19-1.54,35.75-9,52.32-17.93,74.65-40.24,149.53-80.05,224.33-120q85.37-45.62,170.76-91.16c3.74-2,5.16-4.17,5.16-8.44q-.26-231.18-.27-462.37c0-7.86,0-7.86-7.82-7.86H-527Z" transform="translate(1004.2 354)" fill="#4448da"/></svg>