<svg id="Layer_1" data-name="Layer 1" xmlns="http://www.w3.org/2000/svg" width="178.67" height="60.82" viewBox="0 0 178.67 60.82"><title>jobsy-yellow-logo</title><path d="M-221.74,300.62a13.75,13.75,0,0,1,5.15-5.12,14.34,14.34,0,0,1,7.29-1.87A14.3,14.3,0,0,1-202,295.5a13.82,13.82,0,0,1,5.12,5.12,14.52,14.52,0,0,1,1.9,7.48,14.55,14.55,0,0,1-1.9,7.44,13.76,13.76,0,0,1-5.12,5.15,14.3,14.3,0,0,1-7.33,1.87,14.34,14.34,0,0,1-7.29-1.87,13.69,13.69,0,0,1-5.15-5.15,14.55,14.55,0,0,1-1.9-7.44A14.52,14.52,0,0,1-221.74,300.62Zm4.22,12.6a9.37,9.37,0,0,0,3.37,3.53A9.23,9.23,0,0,0-209.3,318a9.24,9.24,0,0,0,4.86-1.29,9.37,9.37,0,0,0,3.37-3.53,10.32,10.32,0,0,0,1.24-5.12,10.53,10.53,0,0,0-1.24-5.16,9.06,9.06,0,0,0-3.37-3.52,9.33,9.33,0,0,0-4.86-1.27,9.31,9.31,0,0,0-4.85,1.27,9.06,9.06,0,0,0-3.37,3.52,10.53,10.53,0,0,0-1.24,5.16A10.32,10.32,0,0,0-217.52,313.22Z" transform="translate(306.67 -278.74)"/><path d="M-188.58,305.5h4.46a5.64,5.64,0,0,0,2.29-.43,3.55,3.55,0,0,0,1.54-1.25,3.34,3.34,0,0,0,.55-1.95,3.21,3.21,0,0,0-1.2-2.68,4.94,4.94,0,0,0-3.18-.95h-3.35v19.94h3.87a7.06,7.06,0,0,0,2.8-.52,4.37,4.37,0,0,0,1.93-1.52,4.26,4.26,0,0,0,.71-2.54,4.63,4.63,0,0,0-.39-2,3.78,3.78,0,0,0-1.15-1.4,4.87,4.87,0,0,0-1.73-.83,8.68,8.68,0,0,0-2.17-.25h-5v-2.61h5.25a15.66,15.66,0,0,1,3.81.45,10.41,10.41,0,0,1,3.18,1.37,6.51,6.51,0,0,1,2.17,2.32,6.86,6.86,0,0,1,.79,3.4,7.57,7.57,0,0,1-1.26,4.5,7.37,7.37,0,0,1-3.5,2.63,14.63,14.63,0,0,1-5.19.85h-8.8V294.41h8.33a13,13,0,0,1,4.62.75,6.66,6.66,0,0,1,3.1,2.29,6.44,6.44,0,0,1,1.12,3.91,5.49,5.49,0,0,1-1.12,3.49,7,7,0,0,1-3.1,2.19,13,13,0,0,1-4.62.75h-4.78Z" transform="translate(306.67 -278.74)"/><path d="M-128,294.34a1.67,1.67,0,0,0-.28.43q-4.49,7.65-9,15.3a1.44,1.44,0,0,0-.22.78c0,3.67,0,7.33,0,11,0,.46,0,.39-.42.39h-4c-.4,0-.37.05-.37-.36v-11a1.26,1.26,0,0,0-.18-.68q-4.58-7.77-9.13-15.54a1.19,1.19,0,0,1-.17-.36c.11-.09.23,0,.34,0,1.55,0,3.09,0,4.63,0a.56.56,0,0,1,.56.33q3,5.61,6.07,11.21l.22.4a1,1,0,0,0,.22-.33q3.07-5.62,6.14-11.25a.56.56,0,0,1,.57-.36c1.55,0,3.09,0,4.63,0a.88.88,0,0,0,.36,0Z" transform="translate(306.67 -278.74)" style="fill:#030304"/><path d="M-155.61,301.86a10.14,10.14,0,0,0-1.32-1.89,5.72,5.72,0,0,0-3.12-1.9,6.06,6.06,0,0,0-2.9.09,3,3,0,0,0-1.67,4.48,4.49,4.49,0,0,0,1,1.09,12.18,12.18,0,0,0,2.61,1.46c.79.35,1.61.65,2.42.95a14.56,14.56,0,0,1,3.62,1.85,7.79,7.79,0,0,1,2.93,3.9,7.9,7.9,0,0,1-2.88,9,10.06,10.06,0,0,1-4.94,1.86,11.07,11.07,0,0,1-8.84-3,13.1,13.1,0,0,1-2.87-3.78c-.14-.27-.14-.27.11-.45l3.07-2.16.18-.12c.13.09.16.22.23.33a14.75,14.75,0,0,0,2,2.68,7.2,7.2,0,0,0,3.16,2.08,5.77,5.77,0,0,0,3.76,0,3.38,3.38,0,0,0,2.37-2.65,3.88,3.88,0,0,0-1.4-4,7.53,7.53,0,0,0-1.38-.85c-1-.5-2.09-.92-3.16-1.32a15.89,15.89,0,0,1-4.35-2.24,8.39,8.39,0,0,1-1.65-1.61,6.56,6.56,0,0,1-1.37-3.52,7.09,7.09,0,0,1,1.59-5.36,8.25,8.25,0,0,1,3.89-2.53,10.92,10.92,0,0,1,4.14-.45,10.17,10.17,0,0,1,8.41,5.62c.23.41.21.32-.15.53l-3.21,1.82Z" transform="translate(306.67 -278.74)" style="fill:#030304"/><path d="M-239.7,320.35l2.49-3.43c.12,0,.15.08.21.13a4.07,4.07,0,0,0,3.24,1.15,2.56,2.56,0,0,0,2.17-1.58,3.78,3.78,0,0,0,.29-1.37c0-.25,0-.51,0-.76V294.68c0-.52-.07-.46.47-.46h4c.35,0,.33,0,.33.33V315.6a8.3,8.3,0,0,1-.33,2.53,5.57,5.57,0,0,1-4,3.86,9.77,9.77,0,0,1-8.49-1.28l-.35-.26Z" transform="translate(306.67 -278.74)" style="fill:#030304"/><path d="M-276.26,318c.1,0,.12-.1.16-.16l1.23-2.16a2.14,2.14,0,0,0,.21-1.64c-.34-1.42-.66-2.84-1-4.25a1.58,1.58,0,0,1,.17-1.31c.22-.36.43-.73.64-1.1a.24.24,0,0,1,.28-.16,16.83,16.83,0,0,1,4.93,1.18,7.35,7.35,0,0,1,1.88,1.13,4.09,4.09,0,0,1,1.52,3.47,9.8,9.8,0,0,1-3.22,7,9.73,9.73,0,0,1-5.62,2.57,10,10,0,0,1-10.19-5.7,9.49,9.49,0,0,1-.91-4.45,3.93,3.93,0,0,1,1.46-2.88,7.88,7.88,0,0,1,2.41-1.37,16.67,16.67,0,0,1,3.64-.88c.27,0,.55-.06.82-.11a.24.24,0,0,1,.29.14c.22.47.46.93.68,1.4a1.33,1.33,0,0,1,.08.88c-.14.81-.38,1.6-.57,2.39s-.34,1.31-.5,2a2.24,2.24,0,0,0-.07.93,1.59,1.59,0,0,0,.24.67l1.31,2.16Z" transform="translate(306.67 -278.74)" style="fill:#ffba00"/><path d="M-276.48,306.29a5.31,5.31,0,0,1-5.31-5.32,5.31,5.31,0,0,1,5.34-5.28,5.31,5.31,0,0,1,5.29,5.3A5.31,5.31,0,0,1-276.48,306.29Z" transform="translate(306.67 -278.74)" style="fill:#ffba00"/><path d="M-276.41,278.74A30.62,30.62,0,0,0-289,281.56a30.4,30.4,0,0,0-14.81,40.37h0a30.43,30.43,0,0,0,40.39,14.81h0a30.36,30.36,0,0,0,7.81-5.21l-4.38-3.06a24.9,24.9,0,0,1-5.61,3.56,25.23,25.23,0,0,1-33.5-12.28h0a25.2,25.2,0,0,1,12.29-33.48h0a25.23,25.23,0,0,1,10.47-2.34,25.23,25.23,0,0,1,23,14.62,25.22,25.22,0,0,1,.82,19.24l4.37,3.06a30.37,30.37,0,0,0-.48-24.48,30.42,30.42,0,0,0-27.76-17.63Z" transform="translate(306.67 -278.74)" style="fill:#ffba00"/><path d="M-276.37,287.21a21.89,21.89,0,0,0-9.11,2,21.94,21.94,0,0,0-10.69,29.14h0A22,22,0,0,0-267,329.06h0a21.94,21.94,0,0,0,10.69-29.13h0A22,22,0,0,0-276.37,287.21Zm0,4.66h.08A17.28,17.28,0,0,1-259,309.15a17.28,17.28,0,0,1-17.28,17.28h0a17.28,17.28,0,0,1-17.29-17.28h0a17.29,17.29,0,0,1,17.21-17.28Z" transform="translate(306.67 -278.74)" style="fill:#ffba00"/><path d="M-258.24,318.06l-3.44,4.92,8.49,5.95a30.62,30.62,0,0,0,3.45-4.92Z" transform="translate(306.67 -278.74)" style="fill:#ffba00"/></svg>